<?xml version="1.0" encoding="UTF-8"?>
<svg id="_레이어_1" xmlns="http://www.w3.org/2000/svg" version="1.1" viewBox="0 0 69.84 100.03">
  <!-- Generator: Adobe Illustrator 30.3.0, SVG Export Plug-In . SVG Version: 2.1.3 Build 182)  -->
  <defs>
    <style>
      .st0 {
        fill: #036eb8;
      }

      .st1 {
        fill: #4cace2;
      }

      .st2 {
        fill: #00479d;
      }
    </style>
  </defs>
  <path class="st1" d="M38.01,63.76v6.3l-6.19,3.15v-10.88c-6.81-2.04-13.55-5.59-19.63-10.66-1.99-1.66-3.82-3.42-5.52-5.25v11.72c0,14.63,11.17,26.65,25.47,28.03.91.09,1.83.14,2.76.14,14.93,0,27.14-11.56,28.16-26.19-7.22,3.92-16.04,5.13-25.06,3.64h0Z"/>
  <path class="st0" d="M12.2,51.67c6.08,5.07,12.82,8.62,19.63,10.66v-15.19h-10.57v-6.32h10.57v-19.04l-19.06-7.46c-4.96-1.88-6.09,1.09-6.08,2.99v29.11c1.69,1.83,3.53,3.59,5.52,5.25h0Z"/>
  <path class="st2" d="M38.01,30.14v10.68h10.09v6.32h-10.09v16.63c9.02,1.48,17.84.28,25.06-3.64.05-.66.08-1.31.08-1.98,0-14.51-11-26.46-25.14-28h0Z"/>
</svg>